<?xml version="1.0" encoding="UTF-8" standalone="no"?>
<svg
   xmlns:dc="http://purl.org/dc/elements/1.1/"
   xmlns:cc="http://creativecommons.org/ns#"
   xmlns:rdf="http://www.w3.org/1999/02/22-rdf-syntax-ns#"
   xmlns:svg="http://www.w3.org/2000/svg"
   xmlns="http://www.w3.org/2000/svg"
   xmlns:sodipodi="http://sodipodi.sourceforge.net/DTD/sodipodi-0.dtd"
   xmlns:inkscape="http://www.inkscape.org/namespaces/inkscape"
   width="194.00999mm"
   height="56.716mm"
   viewBox="0 0 194.00999 56.716"
   version="1.1"
   id="svg1745"
   inkscape:version="1.0.1 (3bc2e813f5, 2020-09-07)"
   sodipodi:docname="aboutme.svg">
  <defs
     id="defs1739">
    <linearGradient
       x1="24.714632"
       y1="22.897127"
       x2="151.13583"
       y2="148.33623"
       id="a"
       gradientTransform="scale(0.99888681,1.0011144)"
       gradientUnits="userSpaceOnUse">
      <stop
         stop-color="#387EB8"
         offset="0%"
         id="stop918" />
      <stop
         stop-color="#366994"
         offset="100%"
         id="stop920" />
    </linearGradient>
    <linearGradient
       x1="102.48345"
       y1="103.26573"
       x2="238.2592"
       y2="231.90517"
       id="b"
       gradientTransform="scale(0.99888668,1.0011146)"
       gradientUnits="userSpaceOnUse">
      <stop
         stop-color="#FFE052"
         offset="0%"
         id="stop923" />
      <stop
         stop-color="#FFC331"
         offset="100%"
         id="stop925" />
    </linearGradient>
  </defs>
  <sodipodi:namedview
     id="base"
     pagecolor="#ffffff"
     bordercolor="#666666"
     borderopacity="1.0"
     inkscape:pageopacity="0.0"
     inkscape:pageshadow="2"
     inkscape:zoom="0.98994949"
     inkscape:cx="242.99316"
     inkscape:cy="126.05738"
     inkscape:document-units="mm"
     inkscape:current-layer="g1707"
     inkscape:document-rotation="0"
     showgrid="false"
     inkscape:window-width="1920"
     inkscape:window-height="1017"
     inkscape:window-x="-8"
     inkscape:window-y="-8"
     inkscape:window-maximized="1" />
  <metadata
     id="metadata1742">
    <rdf:RDF>
      <cc:Work
         rdf:about="">
        <dc:format>image/svg+xml</dc:format>
        <dc:type
           rdf:resource="http://purl.org/dc/dcmitype/StillImage" />
        <dc:title />
      </cc:Work>
    </rdf:RDF>
  </metadata>
  <g
     inkscape:label="Layer 1"
     inkscape:groupmode="layer"
     id="layer1">
    <g
       id="g1707"
       transform="translate(171.62677,-28.039)">
      <g
         id="g1195"
         transform="translate(-122.0863,7.5595021)">
        <rect
           style="fill:#cccccc;fill-opacity:0.109804;stroke-width:0.64923;stroke-linecap:round;stroke-linejoin:round;paint-order:markers fill stroke"
           id="rect1579"
           width="194.00983"
           height="56.715595"
           x="-49.540382"
           y="20.4797"
           rx="2.7821019"
           ry="2.7821019" />
        <text
           xml:space="preserve"
           style="font-size:5.90074px;line-height:1.25;font-family:'Fredoka One';-inkscape-font-specification:'Fredoka One';fill:#ff4c96;fill-opacity:1;stroke-width:0.147519"
           x="-42.130978"
           y="30.846968"
           id="text1583"><tspan
             sodipodi:role="line"
             id="tspan1581"
             x="-42.130978"
             y="30.846968"
             style="fill:#ff4c96;fill-opacity:1;stroke-width:0.147519">About me!</tspan></text>
        <text
           xml:space="preserve"
           style="font-weight:bold;font-size:4.53383px;line-height:1.25;font-family:Montserrat;-inkscape-font-specification:'Montserrat Bold';fill:#191922;fill-opacity:1;stroke:none;stroke-width:0.113346"
           x="-42.079395"
           y="40.440201"
           id="text854"><tspan
             sodipodi:role="line"
             x="-42.079395"
             y="40.440201"
             style="fill:#191922;fill-opacity:1;stroke:none;stroke-width:0.113346"
             id="tspan856">Hello, My name is</tspan><tspan
             sodipodi:role="line"
             x="-42.079395"
             y="46.107487"
             style="fill:#191922;fill-opacity:1;stroke:none;stroke-width:0.113346"
             id="tspan860" /></text>
        <text
           xml:space="preserve"
           style="font-weight:bold;font-size:4.53383px;line-height:1.25;font-family:Montserrat;-inkscape-font-specification:'Montserrat Bold';fill:#2a7fff;fill-opacity:1;stroke:none;stroke-width:0.113346"
           x="0.69994193"
           y="40.440201"
           id="text866"><tspan
             sodipodi:role="line"
             x="0.69994193"
             y="40.440201"
             style="fill:#2a7fff;fill-opacity:1;stroke:none;stroke-width:0.113346"
             id="tspan864">Eshan</tspan></text>
        <text
           xml:space="preserve"
           style="font-weight:bold;font-size:4.53383px;line-height:1.25;font-family:Montserrat;-inkscape-font-specification:'Montserrat Bold';fill:#191922;fill-opacity:1;stroke:none;stroke-width:0.113346"
           x="15.441013"
           y="40.440201"
           id="text872"><tspan
             sodipodi:role="line"
             x="15.441013"
             y="40.440201"
             style="fill:#191922;fill-opacity:1;stroke:none;stroke-width:0.113346"
             id="tspan870">!</tspan></text>
        <text
           xml:space="preserve"
           style="font-weight:bold;font-size:4.53383px;line-height:1.25;font-family:Montserrat;-inkscape-font-specification:'Montserrat Bold';fill:#191922;fill-opacity:1;stroke:none;stroke-width:0.113346"
           x="-42.079395"
           y="46.988304"
           id="text878"><tspan
             sodipodi:role="line"
             x="-42.079395"
             y="46.988304"
             style="font-style:normal;font-variant:normal;font-weight:600;font-stretch:normal;font-family:Montserrat;-inkscape-font-specification:'Montserrat Semi-Bold';fill:#191922;fill-opacity:1;stroke:none;stroke-width:0.113346"
             id="tspan904">I like to code Discord bots     , AI's, Minecraft Mods/Plugins     , Video games    , </tspan><tspan
             sodipodi:role="line"
             x="-42.079395"
             y="52.65559"
             style="font-style:normal;font-variant:normal;font-weight:600;font-stretch:normal;font-family:Montserrat;-inkscape-font-specification:'Montserrat Semi-Bold';fill:#191922;fill-opacity:1;stroke:none;stroke-width:0.113346"
             id="tspan896">Arduinos and a boatload of other stuff. I love procedural generation and nice </tspan><tspan
             sodipodi:role="line"
             x="-42.079395"
             y="58.32288"
             style="font-style:normal;font-variant:normal;font-weight:600;font-stretch:normal;font-family:Montserrat;-inkscape-font-specification:'Montserrat Semi-Bold';fill:#191922;fill-opacity:1;stroke:none;stroke-width:0.113346"
             id="tspan912">looking user interfaces.</tspan></text>
        <g
           id="g948"
           transform="matrix(0.02019172,0,0,0.02019172,19.093002,43.012883)">
          <path
             d="m 126.916,0.072 c -64.832,0 -60.784,28.115 -60.784,28.115 l 0.072,29.128 h 61.868 V 66.06 H 41.631 c 0,0 -41.486,-4.705 -41.486,60.71 0,65.417 36.21,63.097 36.21,63.097 h 21.61 v -30.356 c 0,0 -1.165,-36.21 35.632,-36.21 h 61.362 c 0,0 34.475,0.557 34.475,-33.319 V 33.97 c 0,0 5.236,-33.898 -62.518,-33.898 z M 92.802,19.66 a 11.12,11.12 0 0 1 11.13,11.13 11.12,11.12 0 0 1 -11.13,11.13 11.12,11.12 0 0 1 -11.13,-11.13 11.12,11.12 0 0 1 11.13,-11.13 z"
             fill="url(#a)"
             id="path930"
             style="fill:url(#a)" />
          <path
             d="m 128.757,254.126 c 64.832,0 60.784,-28.115 60.784,-28.115 l -0.072,-29.127 H 127.6 v -8.745 h 86.441 c 0,0 41.486,4.705 41.486,-60.712 0,-65.416 -36.21,-63.096 -36.21,-63.096 h -21.61 v 30.355 c 0,0 1.165,36.21 -35.632,36.21 h -61.362 c 0,0 -34.475,-0.557 -34.475,33.32 v 56.013 c 0,0 -5.235,33.897 62.518,33.897 z m 34.114,-19.586 a 11.12,11.12 0 0 1 -11.13,-11.13 11.12,11.12 0 0 1 11.13,-11.131 11.12,11.12 0 0 1 11.13,11.13 11.12,11.12 0 0 1 -11.13,11.13 z"
             fill="url(#b)"
             id="path932"
             style="fill:url(#b)" />
        </g>
        <g
           id="g1152"
           transform="matrix(0.56804495,0,0,0.56804495,44.702389,27.611799)">
          <path
             d="m 89.48073,33.518092 c 0,0 -0.368384,0.214228 0.262166,0.28672 0.763895,0.08715 1.154312,0.07465 1.996129,-0.08468 0,0 0.221321,0.138775 0.530413,0.258971 -1.887131,0.808793 -4.270949,-0.04685 -2.788708,-0.461013 m -0.230597,-1.055421 c 0,0 -0.413179,0.305843 0.217839,0.371112 0.816016,0.08418 1.460442,0.09107 2.575545,-0.123652 0,0 0.15426,0.156365 0.396784,0.241874 -2.28168,0.667186 -4.823032,0.05262 -3.190168,-0.489334"
             fill="#5382a1"
             id="path952"
             style="stroke-width:0.0259828" />
          <path
             d="m 91.19414,30.672326 c 0.464988,0.53535 -0.122145,1.017123 -0.122145,1.017123 0,0 1.180632,-0.609505 0.638423,-1.37275 -0.506431,-0.711798 -0.894796,-1.065424 1.207654,-2.284771 2.6e-5,-2.6e-5 -3.300153,0.8242 -1.723932,2.640398"
             fill="#e76f00"
             id="path954"
             style="stroke-width:0.0259828" />
          <path
             d="m 93.690021,34.298745 c 0,0 0.272612,0.224648 -0.300231,0.398395 -1.089277,0.329981 -4.533687,0.429625 -5.490529,0.01317 -0.343961,-0.149661 0.301062,-0.357315 0.503962,-0.400889 0.211604,-0.04588 0.332528,-0.03734 0.332528,-0.03734 -0.382519,-0.269468 -2.472445,0.529088 -1.061579,0.757814 3.847637,0.623977 7.013901,-0.280978 6.015849,-0.731156 m -4.03214,-2.929612 c 0,0 -1.752047,0.41614 -0.620444,0.567256 0.477798,0.06397 1.430276,0.0495 2.317458,-0.02484 0.725076,-0.06116 1.453166,-0.191182 1.453166,-0.191182 0,0 -0.25567,0.109492 -0.440642,0.235768 -1.779172,0.46795 -5.216203,0.250241 -4.226726,-0.228389 0.836802,-0.4045 1.517188,-0.358614 1.517188,-0.358614 m 3.142957,1.756801 c 1.808611,-0.939824 0.972406,-1.843012 0.388703,-1.721309 -0.143062,0.02978 -0.206849,0.05558 -0.206849,0.05558 0,0 0.05313,-0.0832 0.154519,-0.11921 1.154702,-0.405955 2.042742,1.197314 -0.372749,1.832333 0,0 0.02804,-0.025 0.03638,-0.04739"
             fill="#5382a1"
             id="path956"
             style="stroke-width:0.0259828" />
          <path
             d="m 91.710418,26.062977 c 0,0 1.001637,1.001949 -0.950009,2.542729 -1.565022,1.235924 -0.356874,1.940629 -6.5e-4,2.74581 -0.913503,-0.824252 -1.583911,-1.549796 -1.134149,-2.225089 0.660119,-0.991269 2.488944,-1.471873 2.084808,-3.06345"
             fill="#e76f00"
             id="path958"
             style="stroke-width:0.0259828" />
          <path
             d="m 89.835603,35.672638 c 1.736041,0.111128 4.401928,-0.06166 4.46504,-0.883077 0,0 -0.121339,0.311377 -1.434744,0.558708 -1.481721,0.278821 -3.309273,0.246291 -4.393198,0.06758 5.2e-5,-5.2e-5 0.221919,0.18362 1.362902,0.256788"
             fill="#5382a1"
             id="path960"
             style="stroke-width:0.0259828" />
        </g>
        <g
           style="fill:none"
           id="g1024"
           transform="matrix(0.00478236,0,0,0.00478236,132.12992,43.147998)">
          <path
             d="m 962.541,407.983 c 0,-14.237 -3.034,-27.074 -9.336,-37.811 -6.068,-10.736 -15.171,-19.605 -27.307,-26.607 -100.829,-58.117 -201.891,-116.233 -302.72,-174.35 -27.308,-15.638 -53.449,-15.171 -80.523,0.7 -40.145,23.574 -241.336,138.873 -301.086,173.65 -24.741,14.237 -36.644,36.177 -36.644,64.652 V 759.25 c 0,14.004 3.034,26.374 8.869,37.111 6.069,10.97 15.405,20.306 27.775,27.541 59.984,34.777 260.941,149.843 301.086,173.65 27.074,15.868 53.448,16.568 80.523,0.7 100.829,-58.35 201.891,-116.233 302.72,-174.35 12.603,-7.235 21.706,-16.338 27.774,-27.541 5.835,-10.737 8.869,-23.107 8.869,-37.111 z"
             fill="#9a4993"
             id="path995" />
          <path
             d="m 584.667,582.333 -371.34,213.794 c 6.069,10.97 15.405,20.306 27.775,27.542 59.984,34.776 260.941,149.842 301.086,173.649 27.074,15.872 53.449,16.572 80.523,0.7 100.829,-58.35 201.891,-116.233 302.72,-174.349 12.603,-7.236 21.706,-16.338 27.774,-27.542 z"
             fill="#6a1577"
             id="path997" />
          <path
             d="m 474.735,645.584 c 21.707,37.811 62.318,63.252 108.765,63.252 46.913,0 87.758,-25.674 109.231,-63.952 L 584.667,582.333 Z"
             fill="#6a1577"
             id="path999" />
          <path
             d="m 962.542,407.983 c 0,-14.237 -3.035,-27.074 -9.336,-37.811 L 584.667,582.333 953.672,796.128 c 5.835,-10.737 8.87,-23.107 8.87,-37.111 z"
             fill="#813084"
             id="path1001" />
          <g
             fill="#ffffff"
             id="g1007">
            <path
               d="m 692.731,644.884 c -21.472,38.044 -62.317,63.952 -109.231,63.952 -46.68,0 -87.291,-25.441 -108.764,-63.252 -10.503,-18.438 -16.572,-39.444 -16.572,-62.084 0,-69.32 56.016,-125.336 125.336,-125.336 46.213,0 86.592,25.207 108.298,62.551 L 801.262,457.697 C 757.617,382.543 676.393,331.895 583.267,331.895 c -139.107,0 -251.605,112.732 -251.605,251.605 0,45.513 12.136,88.459 33.376,125.336 43.412,75.388 125.102,126.269 218.462,126.269 93.594,0 175.284,-51.114 218.696,-126.969 z M 831.137,523.983 h -24.974 v 120.668 h 24.974 z m 55.316,0 h -24.974 v 120.668 h 24.974 z"
               id="path1003" />
            <path
               d="M 906.759,544.289 H 786.091 v 24.974 h 120.668 z m 0,55.082 H 786.091 v 24.974 h 120.668 z"
               id="path1005" />
          </g>
        </g>
      </g>
    </g>
  </g>
</svg>
