<?xml version="1.0" encoding="UTF-8" standalone="no"?>
<svg
   xmlns:dc="http://purl.org/dc/elements/1.1/"
   xmlns:cc="http://creativecommons.org/ns#"
   xmlns:rdf="http://www.w3.org/1999/02/22-rdf-syntax-ns#"
   xmlns:svg="http://www.w3.org/2000/svg"
   xmlns="http://www.w3.org/2000/svg"
   xmlns:sodipodi="http://sodipodi.sourceforge.net/DTD/sodipodi-0.dtd"
   xmlns:inkscape="http://www.inkscape.org/namespaces/inkscape"
   width="210mm"
   height="297mm"
   viewBox="0 0 210 297"
   version="1.1"
   id="svg8"
   inkscape:version="1.0.1 (3bc2e813f5, 2020-09-07)"
   sodipodi:docname="draasdwing.svg">
  <defs
     id="defs2" />
  <sodipodi:namedview
     id="base"
     pagecolor="#ffffff"
     bordercolor="#666666"
     borderopacity="1.0"
     inkscape:pageopacity="0.0"
     inkscape:pageshadow="2"
     inkscape:zoom="0.9899495"
     inkscape:cx="357.82922"
     inkscape:cy="373.7226"
     inkscape:document-units="mm"
     inkscape:current-layer="layer1"
     inkscape:document-rotation="0"
     showgrid="false"
     inkscape:window-width="1920"
     inkscape:window-height="1017"
     inkscape:window-x="-8"
     inkscape:window-y="-8"
     inkscape:window-maximized="1" />
  <metadata
     id="metadata5">
    <rdf:RDF>
      <cc:Work
         rdf:about="">
        <dc:format>image/svg+xml</dc:format>
        <dc:type
           rdf:resource="http://purl.org/dc/dcmitype/StillImage" />
        <dc:title />
      </cc:Work>
    </rdf:RDF>
  </metadata>
  <g
     inkscape:label="Layer 1"
     inkscape:groupmode="layer"
     id="layer1">
    <g
       id="g946"
       inkscape:export-xdpi="400"
       inkscape:export-ydpi="400"
       transform="matrix(0.31271865,0,0,0.31271865,259.16955,186.91557)">
      <g
         id="g1451"
         inkscape:export-xdpi="200"
         inkscape:export-ydpi="200"
         transform="translate(-60.368742,-55.352213)">
        <rect
           style="fill:none;fill-opacity:1;stroke:#cc0000;stroke-width:0"
           id="rect833"
           width="514.76111"
           height="209.69778"
           x="-649.46497"
           y="-271.01129" />
        <text
           xml:space="preserve"
           style="font-size:41.5894px;line-height:1.25;font-family:'Fredoka One';-inkscape-font-specification:'Fredoka One';fill:#ff4c96;fill-opacity:1;stroke-width:1.03974"
           x="-569.50446"
           y="-194.89478"
           id="text837"><tspan
             sodipodi:role="line"
             id="tspan835"
             x="-569.50446"
             y="-194.89478"
             style="fill:#ff4c96;fill-opacity:1;stroke-width:1.03974">SippinOnJuiceBox</tspan></text>
        <g
           id="g1241"
           transform="translate(1.0022359)">
          <text
             xml:space="preserve"
             style="font-size:19.6959px;line-height:1.25;font-family:'Fredoka One';-inkscape-font-specification:'Fredoka One';fill:#ff4c96;fill-opacity:1;stroke-width:0.492401"
             x="-475.98355"
             y="-147.48257"
             id="text1154"><tspan
               sodipodi:role="line"
               id="tspan1152"
               x="-475.98355"
               y="-147.48257"
               style="fill:#ff4c96;fill-opacity:1;stroke-width:0.492401">Coding</tspan></text>
          <text
             xml:space="preserve"
             style="font-size:19.6959px;line-height:1.25;font-family:'Fredoka One';-inkscape-font-specification:'Fredoka One';fill:#ff4c96;fill-opacity:1;stroke-width:0.492401"
             x="-373.15744"
             y="-147.48257"
             id="text1158"><tspan
               sodipodi:role="line"
               id="tspan1156"
               x="-373.15744"
               y="-147.48257"
               style="fill:#ff4c96;fill-opacity:1;stroke-width:0.492401">Design</tspan></text>
          <circle
             style="fill:#ff4c96;fill-opacity:1;stroke:none;stroke-width:0.584293;stroke-linecap:round;stroke-linejoin:round;stroke-miterlimit:4;stroke-dasharray:none;stroke-opacity:1;paint-order:markers fill stroke"
             id="path1164"
             cx="-392.08441"
             cy="-152.85954"
             r="2.9399648" />
        </g>
        <g
           id="g1234"
           transform="translate(5.5974838)"
           style="fill:#000000;fill-opacity:1">
          <g
             fill="#5c6bc0"
             id="g1172"
             transform="matrix(0.80342253,0,0,0.8633327,-389.58493,-112.66431)"
             style="fill:#000000;fill-opacity:1">
            <path
               d="M 3.58,21.196 H 17.839 L 17.158,18.991 C 17.259,19.079 23,24 23,24 V 2.475 C 22.932,1.137 21.78,0 20.352,0 L 3.585,0.003 C 2.158,0.003 1,1.142 1,2.48 v 16.24 c 0,1.411 1.156,2.476 2.58,2.476 z M 14.128,5.683 14.095,5.695 14.107,5.683 Z M 6.497,6.952 c 1.833,-1.334 3.532,-1.27 3.532,-1.27 l 0.137,0.135 C 7.923,6.352 6.906,7.354 6.906,7.354 7.01,7.332 11.539,4.719 17.027,7.42 c 0,0 -1.019,-0.937 -3.124,-1.537 L 14.089,5.7 c 0.291,10e-4 1.831,0.055 3.479,1.26 0,0 1.844,3.15 1.844,7.02 -0.061,-0.074 -1.144,1.666 -3.931,1.726 0,0 -0.472,-0.534 -0.808,-1 1.63,-0.468 2.24,-1.404 2.24,-1.404 -3.173,1.998 -5.954,1.686 -9.281,0.336 -0.031,0 -0.045,-0.014 -0.061,-0.03 V 13.602 C 7.555,13.587 7.541,13.572 7.51,13.572 H 7.45 c -0.204,-0.134 -0.34,-0.2 -0.34,-0.2 0,0 0.609,0.936 2.174,1.404 -0.411,0.469 -0.818,1.002 -0.818,1.002 -2.786,-0.066 -3.802,-1.806 -3.802,-1.806 0,-3.876 1.833,-7.02 1.833,-7.02 z"
               id="path1166"
               style="fill:#000000;fill-opacity:1" />
            <path
               d="m 14.308,12.771 c 0.711,0 1.29,-0.6 1.29,-1.34 0,-0.735 -0.576,-1.335 -1.29,-1.335 v 0.003 c -0.708,0 -1.288,0.598 -1.29,1.338 0,0.734 0.579,1.334 1.29,1.334 z"
               id="path1168"
               style="fill:#000000;fill-opacity:1" />
            <path
               d="m 9.69,12.771 c 0.711,0 1.29,-0.6 1.29,-1.34 0,-0.735 -0.575,-1.335 -1.286,-1.335 L 9.69,10.099 c -0.711,0 -1.29,0.598 -1.29,1.338 0,0.734 0.579,1.334 1.29,1.334 z"
               id="path1170"
               style="fill:#000000;fill-opacity:1" />
          </g>
          <path
             class="st0"
             d="m -416.85572,-102.21289 -4.38105,3.398226 -1.91105,-0.947293 v -8.856453 l 1.90348,-0.95481 4.35085,3.40575 6.88883,-6.86411 4.53213,1.79685 v 14.051516 l -4.50947,1.826923 z m 6.71509,1.19539 v -6.35287 l -4.12424,3.18018 z m -10.94508,-1.14277 2.16787,-1.96225 -2.16787,-2.1502 z"
             id="path1188"
             style="fill:#000000;fill-opacity:1;stroke-width:0.0753584" />
          <path
             d="m -445.69996,-112.0226 v -0.004 h 0.82852 l 0.30273,0.0661 c 0.20181,0.0429 0.38505,0.0991 0.54969,0.16862 0.16466,0.0696 0.32399,0.15066 0.478,0.24339 0.15402,0.0927 0.2937,0.18716 0.41906,0.28337 0.12427,0.095 0.23581,0.19586 0.33458,0.30248 0.0977,0.10777 0.25015,0.13559 0.45728,0.0834 0.20713,-0.0521 0.43019,-0.1246 0.66919,-0.21731 0.239,-0.0927 0.47536,-0.19702 0.70903,-0.31291 0.23369,-0.11591 0.37602,-0.1895 0.42701,-0.22078 0.0499,-0.0324 0.0765,-0.0499 0.0797,-0.0521 l 0.003,-0.005 0.0159,-0.009 0.0159,-0.009 0.016,-0.009 0.0159,-0.009 0.003,-0.005 0.005,-0.004 0.005,-0.004 0.004,-0.005 0.016,-0.005 0.0159,-0.004 -0.003,0.0261 -0.005,0.026 -0.008,0.0261 -0.008,0.0261 -0.008,0.0173 -0.008,0.0173 -0.008,0.0261 c -0.005,0.0173 -0.0106,0.0405 -0.0159,0.0696 -0.005,0.029 -0.0557,0.14486 -0.15139,0.34768 -0.0956,0.20283 -0.21509,0.40853 -0.35849,0.61714 -0.1434,0.20862 -0.27191,0.36623 -0.38557,0.47286 -0.11472,0.10778 -0.19067,0.18311 -0.22785,0.226 -0.0371,0.044 -0.0824,0.0846 -0.13543,0.12169 l -0.0796,0.0574 -0.016,0.009 -0.016,0.009 -0.003,0.005 -0.005,0.004 -0.005,0.004 -0.003,0.005 -0.0159,0.009 -0.016,0.009 -0.003,0.005 -0.005,0.004 -0.005,0.004 -0.003,0.005 -0.003,0.005 -0.005,0.004 -0.005,0.004 -0.003,0.005 h 0.0797 l 0.44612,-0.10431 c 0.29742,-0.0695 0.58156,-0.15355 0.85243,-0.25207 l 0.4302,-0.15647 0.0478,-0.0173 0.0239,-0.009 0.016,-0.009 0.0159,-0.009 0.016,-0.009 0.0159,-0.009 0.0319,-0.005 0.0319,-0.004 v 0.0348 l -0.008,0.004 -0.008,0.005 -0.003,0.005 -0.005,0.004 -0.005,0.004 -0.003,0.005 -0.003,0.005 -0.005,0.004 -0.005,0.004 -0.003,0.005 -0.003,0.005 -0.005,0.004 -0.008,0.0173 -0.008,0.0173 -0.005,0.004 c -0.002,0.004 -0.0695,0.10197 -0.20235,0.29554 -0.13277,0.19469 -0.20447,0.2932 -0.2151,0.29553 -0.0106,0.004 -0.0255,0.0209 -0.0446,0.0521 -0.0181,0.0324 -0.13064,0.16166 -0.33778,0.38767 -0.20713,0.22599 -0.40999,0.42706 -0.60863,0.60323 -0.19968,0.17733 -0.30061,0.3952 -0.30274,0.65366 -0.003,0.25728 -0.0154,0.54819 -0.0366,0.87269 -0.0212,0.3245 -0.0611,0.67508 -0.11949,1.05175 -0.0584,0.37667 -0.14871,0.80258 -0.27087,1.27775 -0.12214,0.47516 -0.27086,0.93875 -0.44612,1.39075 -0.17528,0.45198 -0.35852,0.85761 -0.5497,1.21689 -0.19121,0.35928 -0.36647,0.66351 -0.5258,0.91268 -0.15933,0.24917 -0.32131,0.48386 -0.48597,0.70406 -0.16463,0.22021 -0.37281,0.468237 -0.62456,0.744055 -0.25281,0.274671 -0.39089,0.425342 -0.41426,0.451992 -0.0244,0.0255 -0.12852,0.120543 -0.31232,0.285102 -0.18268,0.165726 -0.3792,0.331451 -0.58951,0.497192 -0.20925,0.164577 -0.40152,0.301914 -0.57679,0.412009 -0.17526,0.110094 -0.38663,0.235835 -0.63414,0.37724 -0.24643,0.14255 -0.51305,0.274671 -0.79984,0.396362 -0.2868,0.12169 -0.58953,0.234688 -0.90819,0.338993 -0.31866,0.104306 -0.6267,0.185439 -0.92413,0.243381 -0.2974,0.05795 -0.63467,0.107209 -1.01175,0.147767 l -0.56564,0.06085 v 0.0087 h -1.03565 v -0.0087 l -0.13544,-0.0087 c -0.0902,-0.0058 -0.16463,-0.01159 -0.22306,-0.01738 -0.0584,-0.0057 -0.27883,-0.03767 -0.66122,-0.09561 -0.38239,-0.05794 -0.68246,-0.115902 -0.90022,-0.173843 -0.21775,-0.05794 -0.54174,-0.168054 -0.97193,-0.330302 -0.4302,-0.162247 -0.79826,-0.326251 -1.10417,-0.491976 -0.30485,-0.164578 -0.49605,-0.268884 -0.5736,-0.312918 -0.0765,-0.04289 -0.1625,-0.09619 -0.25811,-0.159935 l -0.1434,-0.09561 -0.003,-0.0053 -0.005,-0.0035 -0.005,-0.0035 -0.003,-0.0053 -0.016,-0.0087 -0.0159,-0.0087 -0.003,-0.0053 -0.005,-0.0035 -0.005,-0.0035 -0.003,-0.0053 -0.003,-0.0053 -0.005,-0.0035 h -0.008 v -0.03477 l 0.0159,0.0035 0.016,0.0053 0.0717,0.0087 c 0.0478,0.0057 0.17792,0.01448 0.39036,0.02608 0.21245,0.01159 0.43817,0.01159 0.67716,0 0.23899,-0.01159 0.48332,-0.03767 0.73294,-0.07823 0.24961,-0.04057 0.54438,-0.110095 0.88428,-0.208611 0.33992,-0.09852 0.6522,-0.215566 0.9369,-0.351163 0.28361,-0.136745 0.48542,-0.238739 0.60545,-0.305964 0.11895,-0.06606 0.30059,-0.188916 0.5449,-0.368549 l 0.36647,-0.269456 0.003,-0.0053 0.005,-0.0035 0.005,-0.0035 0.003,-0.0053 0.003,-0.0053 0.005,-0.0035 0.005,-0.0035 0.003,-0.0053 0.016,-0.0053 0.0159,-0.0035 0.003,-0.01738 0.005,-0.01739 0.005,-0.0035 0.004,-0.0053 -0.12748,-0.0087 c -0.085,-0.0058 -0.1673,-0.0116 -0.24697,-0.01738 -0.0796,-0.0057 -0.20447,-0.03186 -0.37441,-0.07823 -0.16994,-0.04637 -0.35318,-0.115902 -0.54971,-0.208606 -0.1965,-0.0927 -0.3877,-0.20282 -0.57358,-0.3303 -0.18588,-0.12748 -0.32026,-0.23354 -0.40312,-0.31814 -0.0818,-0.0834 -0.18801,-0.20165 -0.31866,-0.35464 -0.12959,-0.15413 -0.24219,-0.31234 -0.33778,-0.47459 -0.0956,-0.16225 -0.18696,-0.34943 -0.27404,-0.56151 l -0.13226,-0.3164 -0.008,-0.0262 -0.008,-0.0261 -0.005,-0.0173 -0.003,-0.0173 0.0239,0.004 0.0239,0.005 0.17526,0.0262 c 0.11686,0.0173 0.30009,0.0232 0.5497,0.0173 0.24963,-0.006 0.42223,-0.0173 0.51782,-0.0348 0.0956,-0.0174 0.15404,-0.029 0.17528,-0.0348 l 0.0319,-0.009 0.0399,-0.009 0.0399,-0.009 0.003,-0.005 0.005,-0.004 0.005,-0.004 0.003,-0.005 -0.032,-0.009 -0.0319,-0.009 -0.0319,-0.009 -0.0319,-0.009 -0.0319,-0.009 c -0.0213,-0.006 -0.0584,-0.0173 -0.11154,-0.0348 -0.0531,-0.0173 -0.19651,-0.0812 -0.43019,-0.19122 -0.23368,-0.11009 -0.41957,-0.2173 -0.55767,-0.32161 a 3.8510489,4.2017889 0 0 1 -0.39514,-0.34247 c -0.12428,-0.12517 -0.26076,-0.28627 -0.40948,-0.48329 -0.14871,-0.197 -0.28147,-0.42591 -0.39832,-0.68668 -0.11686,-0.26076 -0.20448,-0.50993 -0.26291,-0.74752 a 3.6987759,4.0356474 0 0 1 -0.11471,-0.72146 l -0.0286,-0.36505 0.016,0.004 0.0159,0.005 0.0159,0.009 0.0159,0.009 0.016,0.009 0.0159,0.009 0.24698,0.12169 c 0.16465,0.0812 0.36911,0.15066 0.61342,0.20861 0.24432,0.0578 0.39037,0.0898 0.43816,0.0956 l 0.0716,0.009 h 0.1434 l -0.003,-0.005 -0.005,-0.004 -0.005,-0.004 -0.003,-0.005 -0.004,-0.005 -0.005,-0.004 -0.005,-0.004 -0.003,-0.005 -0.0159,-0.009 -0.016,-0.009 -0.004,-0.005 -0.005,-0.004 -0.005,-0.004 -0.003,-0.005 -0.0159,-0.009 -0.016,-0.009 -0.003,-0.005 c -0.003,-0.002 -0.0489,-0.0394 -0.13705,-0.11124 -0.0871,-0.0731 -0.17844,-0.16747 -0.27405,-0.28337 -0.0956,-0.11591 -0.19118,-0.2376 -0.28678,-0.36508 a 2.5836922,2.8190058 0 0 1 -0.25494,-0.40853 c -0.0744,-0.14486 -0.15295,-0.32915 -0.23581,-0.55282 -0.0818,-0.22252 -0.14393,-0.44678 -0.18642,-0.67277 -0.0425,-0.22599 -0.0664,-0.44909 -0.0717,-0.6693 -0.005,-0.2202 0,-0.40853 0.016,-0.56499 0.0159,-0.15645 0.0478,-0.3332 0.0956,-0.53022 0.0478,-0.19702 0.11685,-0.40563 0.20714,-0.62584 l 0.13544,-0.3303 0.008,-0.0261 0.008,-0.026 0.005,-0.004 0.003,-0.005 0.003,-0.005 0.005,-0.004 0.005,0.004 0.003,0.005 0.003,0.005 0.005,0.004 0.005,0.004 0.003,0.005 0.003,0.005 0.005,0.004 0.008,0.0173 0.008,0.0173 0.005,0.004 0.003,0.005 0.21511,0.26077 c 0.14338,0.17384 0.31334,0.36797 0.50985,0.58237 0.19652,0.21441 0.30539,0.32566 0.32663,0.33377 0.0213,0.009 0.0478,0.0359 0.0796,0.08 0.0319,0.0429 0.13809,0.14546 0.31867,0.3077 0.18058,0.16225 0.41692,0.3506 0.70902,0.565 0.29212,0.2144 0.61609,0.42592 0.97192,0.63453 0.35585,0.20861 0.73824,0.39692 1.14719,0.56499 0.40896,0.16805 0.69577,0.27815 0.86039,0.3303 0.16466,0.0521 0.44614,0.11878 0.84446,0.19992 0.39834,0.0811 0.69841,0.13329 0.90022,0.15646 0.20184,0.0232 0.33993,0.0365 0.41427,0.0399 l 0.11154,0.004 -0.003,-0.026 -0.005,-0.0261 -0.0319,-0.2173 c -0.0213,-0.14487 -0.032,-0.34769 -0.032,-0.60845 0,-0.26077 0.0185,-0.50125 0.0557,-0.72144 0.0371,-0.22021 0.093,-0.4433 0.1673,-0.6693 0.0744,-0.226 0.14713,-0.40739 0.2183,-0.54414 0.0722,-0.1356 0.16676,-0.29032 0.28361,-0.46416 0.11684,-0.17384 0.2682,-0.35348 0.45409,-0.53891 0.18589,-0.18545 0.39832,-0.35059 0.63732,-0.49546 0.239,-0.14485 0.45941,-0.25496 0.66123,-0.3303 0.20182,-0.0754 0.37178,-0.12459 0.50986,-0.14777 0.1381,-0.0232 0.20713,-0.0365 0.20713,-0.04 z"
             fill="#5da8dc"
             stroke="#5da8dc"
             stroke-width="0.00832149"
             id="path1199"
             style="fill:#000000;fill-opacity:1" />
          <path
             d="m -346.69068,-113.03158 c -4.88289,0 -8.83764,4.01506 -8.83764,8.97242 0,4.216656 2.84986,7.716285 6.69479,8.702869 -0.0444,-0.11225 -0.0662,-0.269554 -0.0662,-0.426094 v -1.525694 h -1.1049 c -0.59644,0 -1.14926,-0.268792 -1.39219,-0.762847 -0.28732,-0.538347 -0.3317,-1.368392 -1.06053,-1.884591 -0.22111,-0.179453 -0.0444,-0.358903 0.19857,-0.336753 0.46407,0.1344 0.83938,0.449003 1.1929,0.919387 0.35351,0.471148 0.50844,0.583399 1.17107,0.583399 0.30913,0 0.79502,-0.02214 1.23727,-0.0901 0.24294,-0.628451 0.66264,-1.188946 1.17108,-1.457736 -2.96041,-0.3589 -4.37444,-1.83954 -4.37444,-3.85853 0,-0.8751 0.37532,-1.70513 0.99433,-2.42293 -0.19857,-0.69566 -0.46407,-2.13123 0.0887,-2.69173 1.32602,0 2.12103,0.87511 2.31959,1.09883 0.66264,-0.2245 1.39221,-0.3589 2.14285,-0.3589 0.7732,0 1.48022,0.1344 2.14284,0.3589 0.19857,-0.2245 0.99433,-1.09883 2.3196,-1.09883 0.53027,0.53834 0.28732,1.99607 0.0662,2.69173 0.61901,0.69564 0.97251,1.54783 0.97251,2.42293 0,2.01899 -1.3922,3.49963 -4.33006,3.81347 0.81758,0.426104 1.39221,1.637192 1.39221,2.534435 v 2.043422 c 0,0.0672 -0.0218,0.134395 -0.0218,0.201593 3.44629,-1.211087 5.92083,-4.53051 5.92083,-8.45623 0,-4.95736 -3.95475,-8.97242 -8.83764,-8.97242 z"
             id="path1217"
             style="fill:#000000;fill-opacity:1;stroke-width:0.0075785" />
        </g>
      </g>
      <g
         id="g920"
         transform="matrix(0.78735229,0,0,0.78735229,-44.78743,-123.46097)"
         inkscape:export-xdpi="400"
         inkscape:export-ydpi="400">
        <text
           xml:space="preserve"
           style="font-size:14.4426px;line-height:1.25;font-family:'Fredoka One';-inkscape-font-specification:'Fredoka One';fill:#ff4c96;fill-opacity:1;stroke-width:0.361067"
           x="-535.7345"
           y="12.940007"
           id="text897"><tspan
             sodipodi:role="line"
             id="tspan895"
             x="-535.7345"
             y="12.940007"
             style="font-style:normal;font-variant:normal;font-weight:normal;font-stretch:normal;font-family:'Fredoka One';-inkscape-font-specification:'Fredoka One';fill:#ff4c96;fill-opacity:1;stroke-width:0.361067">Links</tspan></text>
        <g
           id="g913"
           transform="matrix(1.9374216,0,0,1.9374216,485.36677,-9.5030659)">
          <g
             id="g907"
             transform="translate(140.3165)">
            <rect
               style="fill:#ff4c96;fill-opacity:1;stroke-width:0.902999;stroke-linecap:round;stroke-linejoin:round;paint-order:markers fill stroke"
               id="rect899"
               width="140.3165"
               height="0.8018086"
               x="-728.24261"
               y="15.149445" />
          </g>
        </g>
      </g>
    </g>
  </g>
  <style
     id="style1186">.st0{fill:#0179cb}</style>
</svg>
