<?xml version="1.0" encoding="UTF-8" standalone="no"?>
<svg
   xmlns:dc="http://purl.org/dc/elements/1.1/"
   xmlns:cc="http://creativecommons.org/ns#"
   xmlns:rdf="http://www.w3.org/1999/02/22-rdf-syntax-ns#"
   xmlns:svg="http://www.w3.org/2000/svg"
   xmlns="http://www.w3.org/2000/svg"
   xmlns:sodipodi="http://sodipodi.sourceforge.net/DTD/sodipodi-0.dtd"
   xmlns:inkscape="http://www.inkscape.org/namespaces/inkscape"
   width="291.534mm"
   height="118.762mm"
   viewBox="0 0 291.534 118.762"
   version="1.1"
   id="svg8"
   inkscape:version="1.0.1 (3bc2e813f5, 2020-09-07)"
   sodipodi:docname="draasdwing.svg">
  <defs
     id="defs2" />
  <sodipodi:namedview
     id="base"
     pagecolor="#ffffff"
     bordercolor="#666666"
     borderopacity="1.0"
     inkscape:pageopacity="0.0"
     inkscape:pageshadow="2"
     inkscape:zoom="0.35"
     inkscape:cx="265.13135"
     inkscape:cy="211.4973"
     inkscape:document-units="mm"
     inkscape:current-layer="layer1"
     inkscape:document-rotation="0"
     showgrid="false"
     inkscape:window-width="1920"
     inkscape:window-height="1017"
     inkscape:window-x="-8"
     inkscape:window-y="-8"
     inkscape:window-maximized="1" />
  <metadata
     id="metadata5">
    <rdf:RDF>
      <cc:Work
         rdf:about="">
        <dc:format>image/svg+xml</dc:format>
        <dc:type
           rdf:resource="http://purl.org/dc/dcmitype/StillImage" />
        <dc:title></dc:title>
      </cc:Work>
    </rdf:RDF>
  </metadata>
  <g
     inkscape:label="Layer 1"
     inkscape:groupmode="layer"
     id="layer1">
    <g
       id="g1577"
       transform="translate(40.766998,8.6003599)">
      <rect
         style="fill:none;fill-opacity:1;stroke:#cc0000;stroke-width:0"
         id="rect833"
         width="291.53415"
         height="118.76201"
         x="-40.767075"
         y="-8.6003637" />
      <text
         xml:space="preserve"
         style="font-size:23.5541px;line-height:1.25;font-family:'Fredoka One';-inkscape-font-specification:'Fredoka One';fill:#ff4c96;fill-opacity:1;stroke-width:0.588855"
         x="4.5183926"
         y="34.508102"
         id="text837"><tspan
           sodipodi:role="line"
           id="tspan835"
           x="4.5183926"
           y="34.508102"
           style="fill:#ff4c96;fill-opacity:1;stroke-width:0.588855">SippinOnJuiceBox</tspan></text>
      <g
         id="g1241"
         transform="matrix(0.56634843,0,0,0.56634843,327.624,138.27188)"
         style="fill:#ff4c96;fill-opacity:1">
        <text
           xml:space="preserve"
           style="font-size:19.6959px;line-height:1.25;font-family:'Fredoka One';-inkscape-font-specification:'Fredoka One';fill:#ff4c96;fill-opacity:1;stroke-width:0.492401"
           x="-475.98355"
           y="-147.48257"
           id="text1154"><tspan
             sodipodi:role="line"
             id="tspan1152"
             x="-475.98355"
             y="-147.48257"
             style="fill:#ff4c96;fill-opacity:1;stroke-width:0.492401">Coding</tspan></text>
        <text
           xml:space="preserve"
           style="font-size:19.6959px;line-height:1.25;font-family:'Fredoka One';-inkscape-font-specification:'Fredoka One';fill:#ff4c96;fill-opacity:1;stroke-width:0.492401"
           x="-373.15744"
           y="-147.48257"
           id="text1158"><tspan
             sodipodi:role="line"
             id="tspan1156"
             x="-373.15744"
             y="-147.48257"
             style="fill:#ff4c96;fill-opacity:1;stroke-width:0.492401">Design</tspan></text>
        <circle
           style="fill:#ff4c96;fill-opacity:1;stroke:none;stroke-width:0.584293;stroke-linecap:round;stroke-linejoin:round;stroke-miterlimit:4;stroke-dasharray:none;stroke-opacity:1;paint-order:markers fill stroke"
           id="path1164"
           cx="-392.08441"
           cy="-152.85954"
           r="2.9399648" />
      </g>
      <g
         id="g1552"
         transform="translate(0.0471844)">
        <g
           fill="#5c6bc0"
           id="g1172"
           transform="matrix(0.37355353,0,0,0.40140893,108.71746,68.220417)"
           style="fill:#748add;fill-opacity:1">
          <path
             d="M 3.58,21.196 H 17.839 L 17.158,18.991 C 17.259,19.079 23,24 23,24 V 2.475 C 22.932,1.137 21.78,0 20.352,0 L 3.585,0.003 C 2.158,0.003 1,1.142 1,2.48 v 16.24 c 0,1.411 1.156,2.476 2.58,2.476 z M 14.128,5.683 14.095,5.695 14.107,5.683 Z M 6.497,6.952 c 1.833,-1.334 3.532,-1.27 3.532,-1.27 l 0.137,0.135 C 7.923,6.352 6.906,7.354 6.906,7.354 7.01,7.332 11.539,4.719 17.027,7.42 c 0,0 -1.019,-0.937 -3.124,-1.537 L 14.089,5.7 c 0.291,10e-4 1.831,0.055 3.479,1.26 0,0 1.844,3.15 1.844,7.02 -0.061,-0.074 -1.144,1.666 -3.931,1.726 0,0 -0.472,-0.534 -0.808,-1 1.63,-0.468 2.24,-1.404 2.24,-1.404 -3.173,1.998 -5.954,1.686 -9.281,0.336 -0.031,0 -0.045,-0.014 -0.061,-0.03 V 13.602 C 7.555,13.587 7.541,13.572 7.51,13.572 H 7.45 c -0.204,-0.134 -0.34,-0.2 -0.34,-0.2 0,0 0.609,0.936 2.174,1.404 -0.411,0.469 -0.818,1.002 -0.818,1.002 -2.786,-0.066 -3.802,-1.806 -3.802,-1.806 0,-3.876 1.833,-7.02 1.833,-7.02 z"
             id="path1166"
             style="fill:#5c76d7;fill-opacity:1" />
          <path
             d="m 14.308,12.771 c 0.711,0 1.29,-0.6 1.29,-1.34 0,-0.735 -0.576,-1.335 -1.29,-1.335 v 0.003 c -0.708,0 -1.288,0.598 -1.29,1.338 0,0.734 0.579,1.334 1.29,1.334 z"
             id="path1168"
             style="fill:#748add;fill-opacity:1" />
          <path
             d="m 9.69,12.771 c 0.711,0 1.29,-0.6 1.29,-1.34 0,-0.735 -0.575,-1.335 -1.286,-1.335 L 9.69,10.099 c -0.711,0 -1.29,0.598 -1.29,1.338 0,0.734 0.579,1.334 1.29,1.334 z"
             id="path1170"
             style="fill:#748add;fill-opacity:1" />
        </g>
        <path
           class="st0"
           d="m 94.573173,73.079834 -2.03698,1.580014 -0.88855,-0.440446 v -4.117833 l 0.88503,-0.443941 2.02294,1.583513 3.20298,-3.191487 2.10723,0.83545 v 6.533291 l -2.09669,0.849433 z m 3.1222,0.5558 v -2.953785 l -1.91757,1.478634 z m -5.08894,-0.531335 1.00796,-0.912353 -1.00796,-0.999742 z"
           id="path1188"
           style="fill:#6d2aaa;fill-opacity:1;stroke-width:0.0350381" />
        <path
           d="m 81.161964,68.518782 v -0.0019 h 0.385223 l 0.140755,0.03073 c 0.09383,0.01995 0.17903,0.04608 0.25558,0.0784 0.07656,0.03236 0.15064,0.07005 0.222247,0.113165 0.07161,0.0431 0.136557,0.08702 0.194843,0.131753 0.05778,0.04417 0.109641,0.09107 0.155564,0.140639 0.04543,0.05011 0.116308,0.06304 0.212614,0.03878 0.09631,-0.02422 0.200018,-0.05793 0.311141,-0.101039 0.111124,-0.0431 0.22102,-0.0916 0.329666,-0.145488 0.108655,-0.05389 0.174831,-0.08811 0.198539,-0.102652 0.0232,-0.01507 0.03557,-0.0232 0.03706,-0.02422 l 0.0014,-0.0023 0.0074,-0.0042 0.0074,-0.0042 0.0074,-0.0042 0.0074,-0.0042 0.0014,-0.0023 0.0023,-0.0019 0.0023,-0.0019 0.0019,-0.0023 0.0074,-0.0023 0.0074,-0.0019 -0.0014,0.01214 -0.0023,0.01209 -0.0037,0.01214 -0.0037,0.01214 -0.0037,0.008 -0.0037,0.008 -0.0037,0.01214 c -0.0023,0.008 -0.0049,0.01883 -0.0074,0.03236 -0.0023,0.01348 -0.0259,0.06735 -0.07039,0.161655 -0.04445,0.09431 -0.100007,0.189947 -0.166681,0.286941 -0.06667,0.097 -0.126425,0.170279 -0.179272,0.219857 -0.05334,0.05011 -0.08865,0.08514 -0.105939,0.105079 -0.01725,0.02046 -0.03831,0.03933 -0.06297,0.05658 l -0.03701,0.02669 -0.0074,0.0042 -0.0074,0.0042 -0.0014,0.0023 -0.0023,0.0019 -0.0023,0.0019 -0.0014,0.0023 -0.0074,0.0042 -0.0074,0.0042 -0.0014,0.0023 -0.0023,0.0019 -0.0023,0.0019 -0.0014,0.0023 -0.0014,0.0023 -0.0023,0.0019 -0.0023,0.0019 -0.0014,0.0023 h 0.03706 l 0.207424,-0.0485 c 0.138286,-0.03231 0.270398,-0.07139 0.39634,-0.1172 l 0.200023,-0.07275 0.02222,-0.008 0.01111,-0.0042 0.0074,-0.0042 0.0074,-0.0042 0.0074,-0.0042 0.0074,-0.0042 0.01483,-0.0023 0.01483,-0.0019 v 0.01618 l -0.0037,0.0019 -0.0037,0.0023 -0.0014,0.0023 -0.0023,0.0019 -0.0023,0.0019 -0.0014,0.0023 -0.0014,0.0023 -0.0023,0.0019 -0.0023,0.0019 -0.0014,0.0023 -0.0014,0.0023 -0.0023,0.0019 -0.0037,0.008 -0.0037,0.008 -0.0023,0.0019 c -9.3e-4,0.0019 -0.03231,0.04741 -0.09408,0.137413 -0.06173,0.09052 -0.09507,0.136324 -0.100011,0.137407 -0.0049,0.0019 -0.01186,0.0097 -0.02074,0.02422 -0.0084,0.01506 -0.06074,0.07516 -0.157052,0.180248 -0.09631,0.105075 -0.190626,0.198563 -0.282984,0.280474 -0.09284,0.08245 -0.139769,0.183749 -0.14076,0.303921 -0.0014,0.119623 -0.0072,0.254882 -0.01702,0.405759 -0.0099,0.150878 -0.02841,0.313881 -0.05556,0.489014 -0.02715,0.175134 -0.06914,0.373162 -0.125942,0.594094 -0.05679,0.220927 -0.125937,0.436474 -0.207425,0.646633 -0.0815,0.210149 -0.166695,0.398748 -0.255584,0.565796 -0.0889,0.167049 -0.170392,0.308501 -0.244473,0.424353 -0.07408,0.115853 -0.149393,0.224972 -0.225953,0.327355 -0.07654,0.102387 -0.173339,0.217708 -0.290391,0.345951 -0.117544,0.127709 -0.181745,0.197763 -0.192611,0.210154 -0.01135,0.01186 -0.05976,0.05605 -0.145214,0.132559 -0.08494,0.07705 -0.17631,0.154109 -0.274094,0.231171 -0.09729,0.07652 -0.186688,0.140376 -0.26818,0.191565 -0.08149,0.05119 -0.179765,0.109652 -0.294845,0.175399 -0.114579,0.06628 -0.238544,0.127709 -0.371888,0.184289 -0.133349,0.05658 -0.274104,0.109119 -0.422266,0.157616 -0.148162,0.0485 -0.291386,0.08622 -0.429677,0.113161 -0.138276,0.02694 -0.295091,0.04985 -0.470416,0.0687 l -0.26341,0.02834 v 0.004 h -0.481529 v -0.004 l -0.06297,-0.004 c -0.04194,-0.0027 -0.07654,-0.0054 -0.103712,-0.0081 -0.02715,-0.0027 -0.129643,-0.01752 -0.307436,-0.04445 -0.177794,-0.02694 -0.317312,-0.05389 -0.41856,-0.08083 -0.101244,-0.02694 -0.251884,-0.07814 -0.451902,-0.153575 -0.200022,-0.07544 -0.371153,-0.151691 -0.513387,-0.228746 -0.14174,-0.07652 -0.230639,-0.125018 -0.266697,-0.145492 -0.03557,-0.01994 -0.07555,-0.04472 -0.120008,-0.07436 l -0.06668,-0.04445 -0.0014,-0.0025 -0.0023,-0.0016 -0.0023,-0.0016 -0.0014,-0.0025 -0.0074,-0.004 -0.0074,-0.004 -0.0014,-0.0025 -0.0023,-0.0016 -0.0023,-0.0016 -0.0014,-0.0025 -0.0014,-0.0025 -0.0023,-0.0016 h -0.0037 v -0.01617 l 0.0074,0.0016 0.0074,0.0025 0.03334,0.004 c 0.02222,0.0027 0.08272,0.0067 0.181499,0.01213 0.09878,0.0054 0.203728,0.0054 0.314847,0 0.111119,-0.0054 0.224721,-0.01752 0.340783,-0.03637 0.116056,-0.01886 0.253111,-0.05119 0.411148,-0.09699 0.158047,-0.04581 0.303242,-0.100228 0.435614,-0.163275 0.131865,-0.06358 0.225698,-0.111002 0.281506,-0.142258 0.05531,-0.03072 0.13976,-0.08784 0.253353,-0.171358 l 0.170391,-0.125285 0.0014,-0.0025 0.0023,-0.0016 0.0023,-0.0016 0.0014,-0.0025 0.0014,-0.0025 0.0023,-0.0016 0.0023,-0.0016 0.0014,-0.0025 0.0074,-0.0025 0.0074,-0.0016 0.0014,-0.0081 0.0023,-0.0081 0.0023,-0.0016 0.0019,-0.0025 -0.05927,-0.004 c -0.03952,-0.0027 -0.07779,-0.0054 -0.114829,-0.0081 -0.03701,-0.0027 -0.09507,-0.01481 -0.174083,-0.03637 -0.07901,-0.02156 -0.164212,-0.05389 -0.255589,-0.09699 -0.09136,-0.0431 -0.180262,-0.0943 -0.266688,-0.153574 -0.08643,-0.05927 -0.148906,-0.108585 -0.187432,-0.14792 -0.03803,-0.03878 -0.08742,-0.09376 -0.148161,-0.16489 -0.06025,-0.07166 -0.112607,-0.145224 -0.157052,-0.220662 -0.04445,-0.07544 -0.08693,-0.162469 -0.127416,-0.261076 l -0.06149,-0.147111 -0.0037,-0.01218 -0.0037,-0.01214 -0.0023,-0.008 -0.0014,-0.008 0.01111,0.0019 0.01111,0.0023 0.08149,0.01218 c 0.05433,0.008 0.139528,0.01079 0.255585,0.008 0.116066,-0.0028 0.196317,-0.008 0.240761,-0.01618 0.04445,-0.0081 0.07162,-0.01348 0.0815,-0.01618 l 0.01483,-0.0042 0.01855,-0.0042 0.01855,-0.0042 0.0014,-0.0023 0.0023,-0.0019 0.0023,-0.0019 0.0014,-0.0023 -0.01488,-0.0042 -0.01483,-0.0042 -0.01483,-0.0042 -0.01483,-0.0042 -0.01483,-0.0042 c -0.0099,-0.0028 -0.02715,-0.008 -0.05186,-0.01618 -0.02469,-0.008 -0.09137,-0.03775 -0.200018,-0.08891 -0.108651,-0.05119 -0.195081,-0.101034 -0.259291,-0.149533 a 1.7905559,1.9536334 0 0 1 -0.183721,-0.159232 c -0.05778,-0.0582 -0.121241,-0.133102 -0.190389,-0.224707 -0.06914,-0.0916 -0.13087,-0.198028 -0.1852,-0.319274 -0.05433,-0.121241 -0.09507,-0.237094 -0.122241,-0.347562 a 1.7197561,1.8763854 0 0 1 -0.05333,-0.335445 l -0.0133,-0.169731 0.0074,0.0019 0.0074,0.0023 0.0074,0.0042 0.0074,0.0042 0.0074,0.0042 0.0074,0.0042 0.114834,0.05658 c 0.07655,0.03776 0.171619,0.07005 0.285212,0.09699 0.113597,0.02688 0.181503,0.04175 0.203723,0.04445 l 0.03329,0.0042 h 0.06667 l -0.0014,-0.0023 -0.0023,-0.0019 -0.0023,-0.0019 -0.0014,-0.0023 -0.0019,-0.0023 -0.0023,-0.0019 -0.0023,-0.0019 -0.0014,-0.0023 -0.0074,-0.0042 -0.0074,-0.0042 -0.0019,-0.0023 -0.0023,-0.0019 -0.0023,-0.0019 -0.0014,-0.0023 -0.0074,-0.0042 -0.0074,-0.0042 -0.0014,-0.0023 c -0.0014,-9.3e-4 -0.02274,-0.01832 -0.06372,-0.05172 -0.0405,-0.03399 -0.08297,-0.07787 -0.12742,-0.131753 -0.04445,-0.05389 -0.08889,-0.110473 -0.133339,-0.169745 a 1.2012948,1.3107046 0 0 1 -0.118535,-0.189947 c -0.03459,-0.06735 -0.07111,-0.15304 -0.109641,-0.257036 -0.03803,-0.103461 -0.06692,-0.207731 -0.08668,-0.312806 -0.01976,-0.105074 -0.03087,-0.208805 -0.03334,-0.311193 -0.0023,-0.102382 0,-0.189947 0.0074,-0.262693 0.0074,-0.07274 0.02222,-0.154923 0.04445,-0.246528 0.02222,-0.09161 0.05433,-0.188598 0.09631,-0.290986 l 0.06297,-0.153574 0.0037,-0.01214 0.0037,-0.01209 0.0023,-0.0019 0.0014,-0.0023 0.0014,-0.0023 0.0023,-0.0019 0.0023,0.0019 0.0014,0.0023 0.0014,0.0023 0.0023,0.0019 0.0023,0.0019 0.0014,0.0023 0.0014,0.0023 0.0023,0.0019 0.0037,0.008 0.0037,0.008 0.0023,0.0019 0.0014,0.0023 0.100015,0.121246 c 0.06667,0.08083 0.145689,0.171089 0.237057,0.270775 0.09137,0.09969 0.141992,0.151416 0.151867,0.155187 0.0099,0.0042 0.02223,0.01669 0.03701,0.0372 0.01483,0.01995 0.06421,0.06763 0.148167,0.143066 0.08396,0.07544 0.193848,0.163013 0.329661,0.262699 0.135822,0.09969 0.286452,0.198032 0.451897,0.295026 0.165453,0.09699 0.343246,0.184549 0.533389,0.262694 0.190147,0.07814 0.3235,0.129326 0.400041,0.153574 0.07656,0.02422 0.207434,0.05523 0.392634,0.09295 0.185209,0.03771 0.324727,0.06197 0.418559,0.07275 0.09385,0.01079 0.158052,0.01697 0.192616,0.01855 l 0.05186,0.0019 -0.0014,-0.01209 -0.0023,-0.01214 -0.01483,-0.101034 c -0.0099,-0.06736 -0.01488,-0.16166 -0.01488,-0.282901 0,-0.121246 0.0086,-0.233057 0.0259,-0.335435 0.01725,-0.102388 0.04324,-0.206114 0.07779,-0.311193 0.03459,-0.10508 0.06841,-0.189417 0.1015,-0.253 0.03357,-0.06305 0.07753,-0.134985 0.131865,-0.215812 0.05432,-0.08083 0.1247,-0.164352 0.21113,-0.250568 0.08643,-0.08622 0.1852,-0.163008 0.296324,-0.230365 0.111124,-0.06735 0.213604,-0.118545 0.307441,-0.153574 0.09384,-0.03506 0.17286,-0.05793 0.237061,-0.06871 0.06421,-0.01079 0.09631,-0.01697 0.09631,-0.0186 z"
           fill="#5da8dc"
           stroke="#5da8dc"
           stroke-width="0.0038691"
           id="path1199"
           style="fill:#44b1f5;fill-opacity:1" />
        <path
           d="m 130.12592,68.049654 c -2.27032,0 -4.10909,1.866813 -4.10909,4.171751 0,1.960546 1.32505,3.587708 3.11276,4.046423 -0.0206,-0.05219 -0.0308,-0.12533 -0.0308,-0.198113 v -0.709376 h -0.51372 c -0.27732,0 -0.53435,-0.124975 -0.6473,-0.354688 -0.1336,-0.250306 -0.15423,-0.636237 -0.4931,-0.876246 -0.10281,-0.08344 -0.0207,-0.166872 0.0923,-0.156574 0.21578,0.06249 0.39028,0.208765 0.55465,0.427472 0.16436,0.219061 0.2364,0.271253 0.54449,0.271253 0.14373,0 0.36965,-0.01029 0.57527,-0.04189 0.11296,-0.292201 0.3081,-0.552804 0.5445,-0.677779 -1.37645,-0.166871 -2.03391,-0.855299 -2.03391,-1.794034 0,-0.40688 0.17451,-0.792805 0.46232,-1.126548 -0.0923,-0.323449 -0.21577,-0.990921 0.0412,-1.251527 0.61653,0 0.98618,0.406884 1.0785,0.510904 0.30809,-0.104382 0.64731,-0.166872 0.99632,-0.166872 0.3595,0 0.68823,0.06249 0.99632,0.166872 0.0923,-0.104382 0.46232,-0.510904 1.07851,-0.510904 0.24655,0.250302 0.13359,0.928078 0.0308,1.251527 0.28781,0.32344 0.45217,0.719668 0.45217,1.126548 0,0.938735 -0.64731,1.627163 -2.01328,1.773083 0.38014,0.198119 0.64731,0.761217 0.64731,1.178393 v 0.950095 c 0,0.03124 -0.0101,0.06249 -0.0101,0.09373 1.60236,-0.563098 2.75291,-2.106473 2.75291,-3.931748 0,-2.304938 -1.83878,-4.171751 -4.10909,-4.171751 z"
           id="path1217"
           style="fill:#1c1c1c;fill-opacity:1;stroke-width:0.00352364" />
      </g>
      <g
         id="g920"
         transform="matrix(0.44591573,0,0,0.44591573,335.88084,87.981325)"
         inkscape:export-xdpi="400"
         inkscape:export-ydpi="400">
        <text
           xml:space="preserve"
           style="font-size:14.4426px;line-height:1.25;font-family:'Fredoka One';-inkscape-font-specification:'Fredoka One';fill:#ff4c96;fill-opacity:1;stroke-width:0.361067"
           x="-535.7345"
           y="12.940007"
           id="text897"><tspan
             sodipodi:role="line"
             id="tspan895"
             x="-535.7345"
             y="12.940007"
             style="font-style:normal;font-variant:normal;font-weight:normal;font-stretch:normal;font-family:'Fredoka One';-inkscape-font-specification:'Fredoka One';fill:#ff4c96;fill-opacity:1;stroke-width:0.361067">Links</tspan></text>
        <g
           id="g913"
           transform="matrix(1.9374216,0,0,1.9374216,485.36677,-9.5030659)">
          <g
             id="g907"
             transform="translate(140.3165)">
            <rect
               style="fill:#ff4c96;fill-opacity:1;stroke-width:0.902999;stroke-linecap:round;stroke-linejoin:round;paint-order:markers fill stroke"
               id="rect899"
               width="140.3165"
               height="0.8018086"
               x="-728.24261"
               y="15.149445" />
          </g>
        </g>
      </g>
    </g>
  </g>
  <style
     id="style1186">.st0{fill:#0179cb}</style>
</svg>
